<svg xmlns="http://www.w3.org/2000/svg" shape-rendering="geometricPrecision" width="270" height="270" viewBox="160.2928284811871 92.45856569623741 270 270">
  <metadata>null</metadata>

<path d=" M 27.509 418.114 C 27.758 415.773 27.701 413.424 28.116 411.096 C 29.359 404.134 32.335 397.294 37.15 392.049 C 52.357 375.485 84.607 374.38 98.5 393.458 C 96.498 395.646 94.101 397.498 91.954 399.542 C 90.803 400.638 89.807 401.925 88.552 402.902 C 84.377 398.958 80.824 395.397 75.061 393.856 C 71.002 392.77 66.889 392.573 62.749 393.289 C 59.744 393.808 56.981 394.933 54.33 396.421 C 41.313 403.73 39.276 422.338 47.594 433.912 C 51.778 439.734 58.625 443.364 65.738 443.89 C 69.159 444.143 72.598 443.796 75.837 442.639 C 81.015 440.79 84.271 437.443 88.005 433.634 C 89.341 434.44 90.418 435.741 91.596 436.767 C 93.856 438.735 96.226 440.59 98.453 442.589 C 96.744 445.614 93.224 448.124 90.462 450.12 C 76.481 460.22 55.755 459.517 42.119 448.98 C 32.322 441.409 27.84 430.227 27.509 418.114 Z" opacity="1" fill="rgb(2,77,39)" fill-rule="evenodd"/>
<path d=" M 104.471 437.596 C 104.845 435.524 105.288 433.646 106.241 431.746 C 108.815 426.614 113.811 424.051 119.258 423.007 C 127.147 421.496 135.396 422.376 143.378 422.194 C 143.632 421.136 143.182 419.276 142.928 418.197 C 140.579 408.248 127.711 409.319 120.057 411.378 C 118.147 411.892 115.971 412.578 114.264 413.589 C 113.836 413.842 112.654 414.873 112.229 414.698 C 111.692 411.128 109.713 407.011 108.112 403.791 C 108.752 403.018 110.214 402.663 111.136 402.263 C 113.949 401.04 116.833 400.066 119.824 399.387 C 132.644 396.478 149.976 396.877 155.927 410.938 C 157.972 415.771 157.729 421.016 157.727 426.154 C 157.723 432.769 157.718 439.384 157.711 446 C 157.708 449.196 157.329 452.664 157.757 455.828 C 154.348 455.636 150.908 455.73 147.494 455.713 C 146.731 455.709 144.837 456.11 144.318 455.575 C 144.285 453.871 144.41 452.173 144.398 450.477 C 144.395 450.108 144.634 449.072 144.27 448.874 C 143.224 449.833 142.529 451.144 141.43 452.109 C 139.25 454.023 136.084 455.232 133.309 455.983 C 122.42 458.931 108.002 455.446 104.892 443.261 C 104.416 441.394 104.286 439.511 104.471 437.596 Z M 118.871 437.065 C 116.992 446.149 128.487 447.924 134.827 446.04 C 138.328 445 141.702 442.268 142.911 438.751 C 143.698 436.458 143.395 433.766 143.455 431.389 C 142.91 430.973 142.096 431.118 141.428 431.097 C 139.785 431.045 138.152 430.965 136.506 430.958 C 130.286 430.933 121.347 429.832 118.871 437.065 Z" opacity="1" fill="rgb(1,77,37)" fill-rule="evenodd"/>
<path d=" M 271.451 253.953 C 271.363 254.832 270.663 255.584 270.237 256.324 C 269.36 257.844 268.562 259.41 267.707 260.943 C 264.299 267.053 260.137 272.773 257.212 279.118 C 255.431 281.554 253.952 284.595 252.768 287.368 C 252.426 287.537 251.671 287.058 251.288 286.976 C 250.431 286.791 249.495 286.813 248.627 286.914 C 243.205 287.548 237.673 286.776 232.245 287.285 C 233.634 285.487 234.693 282.923 235.791 280.901 C 238.153 276.551 240.638 272.267 242.946 267.888 C 243.851 266.171 244.855 264.507 245.778 262.799 C 246.153 262.107 246.964 261.178 247.021 260.365 C 247.068 259.687 246.42 258.939 246.103 258.395 C 245.13 256.73 244.288 254.987 243.357 253.299 C 240 247.206 236.667 241.077 233.434 234.917 C 221.031 211.287 207.376 188.223 195.59 164.285 C 187.41 164.58 179.185 164.428 171 164.37 C 168.838 164.355 166.675 164.365 164.513 164.343 C 163.626 164.334 162.394 164.544 161.65 164.051 C 166.443 156.574 169.945 148.126 175.019 140.857 C 175.891 140.451 177.053 140.679 178.005 140.68 C 180.339 140.684 182.673 140.679 185.007 140.687 C 193.258 140.713 201.91 141.471 210.119 140.704 C 211.433 142.566 212.359 144.863 213.462 146.865 C 216.318 152.047 219.15 157.239 221.976 162.438 C 229.557 176.385 237.003 190.407 244.523 204.388 C 250.528 215.554 256.497 226.741 262.549 237.882 C 265.389 243.11 269.397 248.374 271.451 253.953 Z" opacity="1" fill="rgb(7,87,44)" fill-rule="evenodd"/>
<path d=" M 171.494 415.617 C 172.141 410.363 171.967 404.26 171.571 398.98 C 176.202 398.284 181.162 399.46 185.849 399.006 C 185.595 401.287 185.783 403.697 185.765 405.996 C 185.756 407.11 185.581 408.443 185.951 409.498 C 187.328 408.481 188.291 406.011 189.467 404.653 C 192.258 401.429 196.335 399.22 200.516 398.459 C 201.488 398.282 204.444 397.489 205.268 398.036 C 205.479 401.322 205.166 404.697 205.14 407.991 C 205.131 409.098 205.478 410.937 204.999 411.934 C 202.787 411.824 200.597 412.145 198.445 412.639 C 196.894 412.994 195.357 413.77 194.007 414.596 C 183.849 420.814 185.881 433.284 185.915 443.509 C 185.929 447.606 185.595 451.872 185.923 455.947 C 182.618 455.799 179.307 455.828 175.998 455.793 C 174.633 455.779 172.944 456.099 171.645 455.703 C 171.582 442.392 170.874 428.912 171.494 415.617 Z" opacity="1" fill="rgb(1,78,37)" fill-rule="evenodd"/>
<path d=" M 209.127 399.706 C 211.931 399.551 214.909 399.417 217.71 399.673 C 217.077 394.647 218.126 389.335 217.817 384.264 C 222.294 384.173 227.094 383.856 231.546 384.323 C 231.32 389.404 231.743 394.57 231.65 399.668 C 234.96 399.131 238.652 399.532 242.003 399.553 C 243.408 399.562 245.478 399.148 246.797 399.652 C 246.575 403.189 246.59 406.856 246.762 410.394 C 241.8 410.704 236.726 410.607 231.755 410.63 C 231.737 418.028 231.966 425.427 231.935 432.824 C 231.922 436.137 231.527 440.351 233.998 442.965 C 237.223 446.374 242.207 443.906 245.535 442.195 C 246.636 444.729 247.504 447.342 248.431 449.944 C 248.72 450.755 249.55 451.831 249.257 452.71 C 245.872 454.38 243.337 456.12 239.445 456.616 C 237.119 456.912 234.822 456.924 232.499 456.573 C 230.577 456.282 228.643 455.778 226.881 454.943 C 216.041 449.811 217.648 437.523 217.726 427.503 C 217.77 421.82 217.556 416.087 217.844 410.415 C 215.142 410.239 212.175 410.13 209.482 410.421 C 209.078 406.892 209.419 403.258 209.127 399.706 Z" opacity="1" fill="rgb(2,77,37)" fill-rule="evenodd"/>
<path d=" M 232.245 287.285 C 237.673 286.776 243.205 287.548 248.627 286.914 C 249.495 286.813 250.431 286.791 251.288 286.976 C 251.671 287.058 252.426 287.537 252.768 287.368 C 250.479 291.492 247.615 295.385 245.226 299.477 C 242.124 304.786 239.303 310.417 235.586 315.309 C 233.978 313.617 232.919 311.217 231.712 309.229 C 229.693 305.901 227.245 302.57 225.645 299.027 C 225.763 297.716 226.808 296.508 227.441 295.368 C 228.865 292.803 230.264 289.442 232.245 287.285 Z" opacity="1" fill="rgb(2,78,38)" fill-rule="evenodd"/>
<path d=" M 234.447 169.12 C 236.177 171.987 240.137 173.826 242.947 175.475 C 248.804 178.912 254.605 182.449 260.454 185.899 C 276.03 195.085 291.544 204.394 306.952 213.856 C 311.721 216.785 316.365 219.943 321.215 222.736 C 322.533 223.495 324.113 223.811 325.393 224.54 C 326.127 224.959 325.439 225.922 326.271 226.346 C 326.943 226.339 327.864 225.733 328.478 226.012 C 329.178 226.822 329.789 227.887 330.221 228.864 C 326.132 227.398 320.636 228.338 316.331 228.345 C 306.719 228.361 297.108 228.316 287.496 228.344 C 281.496 228.361 275.496 228.361 269.497 228.399 C 268.161 228.408 263.756 227.641 264.317 229.644 C 263.094 228.049 262.289 225.895 261.329 224.116 C 259.543 220.804 257.664 217.542 255.896 214.22 C 250.475 204.035 244.926 193.916 239.418 183.779 C 237.456 180.168 235.621 176.484 233.6 172.906 C 233.066 171.96 231.411 169.863 231.771 168.889 C 232.713 168.848 233.531 168.883 234.447 169.12 Z" opacity="1" fill="rgb(127,190,77)" fill-rule="evenodd"/>
<path d=" M 234.447 169.12 C 236.112 168.459 238.346 168.833 240.112 168.803 C 244.24 168.733 248.374 168.777 252.503 168.772 C 262.169 168.76 271.836 168.765 281.502 168.784 C 286.045 168.793 291.01 168.226 295.503 168.842 C 300.98 176.46 305.131 185.222 309.78 193.37 C 315.99 204.253 322.439 215.037 328.478 226.012 C 327.864 225.733 326.943 226.339 326.271 226.346 C 325.439 225.922 326.127 224.959 325.393 224.54 C 324.113 223.811 322.533 223.495 321.215 222.736 C 316.365 219.943 311.721 216.785 306.952 213.856 C 291.544 204.394 276.03 195.085 260.454 185.899 C 254.605 182.449 248.804 178.912 242.947 175.475 C 240.137 173.826 236.177 171.987 234.447 169.12 Z" opacity="1" fill="rgb(159,204,91)" fill-rule="evenodd"/>
<path d=" M 253.871 295.771 C 255.291 299.947 258.007 303.866 260.225 307.654 C 261.632 310.058 262.63 312.636 263.946 315.049 C 263.97 315.174 263.995 315.299 264.019 315.424 C 262.21 314.585 258.988 315.047 256.991 315.095 C 251.995 315.215 246.989 315.199 242.001 315.329 C 242.895 314.729 243.605 312.447 244.245 311.431 C 246.493 307.857 248.568 304.176 250.788 300.585 C 251.484 299.459 252.639 295.991 253.871 295.771 Z" opacity="1" fill="rgb(101,171,71)" fill-rule="evenodd"/>
<path d=" M 242.001 315.329 C 246.989 315.199 251.995 315.215 256.991 315.095 C 258.988 315.047 262.21 314.585 264.019 315.424 C 265.137 316.67 265.781 318.433 266.619 319.876 C 268.537 323.181 270.449 326.456 272.217 329.845 C 272.816 330.993 273.338 332.177 273.966 333.31 C 274.178 333.694 274.575 334.492 275.136 334.301 C 274.497 336.01 272.032 335.384 270.502 335.377 C 266.6 335.36 262.698 335.457 258.795 335.445 C 257.509 335.441 255.32 335.835 254.172 335.298 C 251.363 331.331 249.178 326.898 246.527 322.82 C 245.083 320.6 242.662 317.89 242.001 315.329 Z" opacity="1" fill="rgb(6,88,45)" fill-rule="evenodd"/>
<path d=" M 253.871 295.771 C 258.941 296.279 264.389 295.585 269.508 295.646 C 270.977 295.664 273.804 295.13 275.046 295.908 C 276.324 297.365 277.15 299.21 278.143 300.866 C 279.974 303.921 281.857 306.947 283.669 310.014 C 284.538 311.484 286.601 313.759 286.74 315.458 C 286.558 315.068 285.93 315.171 285.545 315.124 C 284.102 314.945 282.738 314.918 281.279 314.932 C 277.354 314.97 273.424 314.84 269.499 314.822 C 267.764 314.814 265.593 314.47 263.946 315.049 C 262.63 312.636 261.632 310.058 260.225 307.654 C 258.007 303.866 255.291 299.947 253.871 295.771 Z" opacity="1" fill="rgb(158,206,94)" fill-rule="evenodd"/>
<path d=" M 253.766 445.616 C 256.272 442.229 258.799 438.155 260.512 434.298 C 262.77 435.15 264.92 437.47 267.087 438.666 C 273.919 442.44 281.839 445.258 289.737 444.324 C 292.309 444.02 295.058 443.373 297.089 441.669 C 300.707 438.633 301.021 432.885 297.566 429.578 C 294.87 426.998 290.857 426.083 287.401 425.014 C 277.22 421.864 263.669 420.416 259.404 408.944 C 255.135 397.464 262.163 385.302 273.29 381.483 C 283.034 378.139 294.62 379.05 304.204 382.522 C 307.636 383.765 311.108 385.231 314.042 387.439 C 312.784 391.481 309.858 394.95 308.713 399.089 C 308.546 399.318 307.004 398.23 306.677 398.057 C 304.582 396.952 302.509 395.862 300.273 395.065 C 294.236 392.913 287.305 391.331 280.929 392.806 C 277.466 393.607 274.187 395.686 273.545 399.427 C 272.523 405.376 278.148 407.899 282.77 409.507 C 292.662 412.947 305.96 414.236 312.197 423.753 C 317.293 431.527 315.514 442.635 309.091 449.092 C 305.391 452.812 300.33 454.868 295.298 456.024 C 285.121 458.363 273.634 456.511 264.24 452.125 C 260.569 450.411 257.397 447.606 253.752 445.973 C 253.757 445.854 253.761 445.735 253.766 445.616 Z" opacity="1" fill="rgb(107,174,66)" fill-rule="evenodd"/>
<path d=" M 271.451 253.953 C 272.417 255.079 272.941 256.575 273.636 257.873 C 275.097 260.598 276.635 263.284 278.108 266.003 C 279.725 268.987 281.425 271.926 283.063 274.899 C 283.735 276.118 284.809 277.444 285.237 278.758 C 282.238 278.174 278.562 278.767 275.497 278.779 C 269.43 278.802 263.229 278.404 257.212 279.118 C 260.137 272.773 264.299 267.053 267.707 260.943 C 268.562 259.41 269.36 257.844 270.237 256.324 C 270.663 255.584 271.363 254.832 271.451 253.953 Z" opacity="1" fill="rgb(69,154,64)" fill-rule="evenodd"/>
<path d=" M 263.946 315.049 C 265.593 314.47 267.764 314.814 269.499 314.822 C 273.424 314.84 277.354 314.97 281.279 314.932 C 282.738 314.918 284.102 314.945 285.545 315.124 C 285.93 315.171 286.558 315.068 286.74 315.458 C 283.462 322.016 278.395 327.694 275.136 334.301 C 274.575 334.492 274.178 333.694 273.966 333.31 C 273.338 332.177 272.816 330.993 272.217 329.845 C 270.449 326.456 268.537 323.181 266.619 319.876 C 265.781 318.433 265.137 316.67 264.019 315.424 C 263.995 315.299 263.97 315.174 263.946 315.049 Z" opacity="1" fill="rgb(85,165,73)" fill-rule="evenodd"/>
<path d=" M 330.221 228.864 C 330.279 230.027 329.01 231.494 328.434 232.445 C 326.733 235.258 325.209 238.179 323.53 241.006 C 318.248 249.9 313.416 259.068 308.266 268.041 C 306.895 270.429 305.534 272.836 304.258 275.276 C 303.756 276.236 303.201 277.894 302.332 278.559 C 298.877 278.97 294.703 278.986 291.242 278.704 C 285.204 268.88 280.301 258.302 274.708 248.222 C 272.497 244.236 270.265 240.259 267.971 236.319 C 266.725 234.179 265.165 231.976 264.317 229.644 C 263.756 227.641 268.161 228.408 269.497 228.399 C 275.496 228.361 281.496 228.361 287.496 228.344 C 297.108 228.316 306.719 228.361 316.331 228.345 C 320.636 228.338 326.132 227.398 330.221 228.864 Z" opacity="1" fill="rgb(95,169,68)" fill-rule="evenodd"/>
<path d=" M 279.556 292.812 C 281.531 292.075 283.908 292.304 286.003 292.271 C 290.168 292.204 294.336 292.213 298.502 292.205 C 312.375 292.177 326.258 292.425 340.127 292.301 C 339.443 294.298 338.004 296.186 336.94 298.011 C 335.03 301.289 333.127 304.58 331.279 307.893 C 329.991 310.204 328.621 313.947 326.674 315.715 C 323 316.36 318.733 315.786 314.998 315.791 C 307.866 315.802 300.693 316.043 293.574 315.95 C 291.369 314.094 289.919 310.508 288.471 308.042 C 285.491 302.966 282.211 298.063 279.556 292.812 Z" opacity="1" fill="rgb(4,76,39)" fill-rule="evenodd"/>
<path d=" M 302.571 169.27 C 304.537 168.523 306.915 168.845 309.002 168.821 C 313.168 168.774 317.336 168.786 321.502 168.783 C 331.335 168.776 341.169 168.778 351.002 168.778 C 355.579 168.778 360.986 168.019 365.471 168.904 C 354.3 186.907 344.738 205.941 333.523 223.907 C 326.01 211.788 319.189 199.213 312.127 186.818 C 310.109 183.275 308.037 179.757 306.053 176.194 C 304.808 173.957 303.182 171.775 302.571 169.27 Z" opacity="1" fill="rgb(124,188,77)" fill-rule="evenodd"/>
<path d=" M 334.849 231.793 C 336.137 232.817 336.784 234.497 337.641 235.863 C 339.038 238.091 340.628 240.209 342.111 242.381 C 347.737 250.621 353.431 258.819 358.884 267.178 C 360.729 270.007 362.637 272.794 364.441 275.65 C 364.787 276.198 365.879 278.601 366.676 278.319 C 366.281 279.182 364.323 278.637 363.502 278.619 C 360.005 278.541 356.498 278.611 353.001 278.626 C 342.833 278.671 332.665 278.66 322.497 278.695 C 318.018 278.71 313.192 279.314 308.757 278.93 C 308.447 278.352 309.636 276.605 309.972 275.981 C 311.469 273.203 313.019 270.445 314.587 267.706 C 319.154 259.727 323.63 251.683 328.104 243.651 C 330.235 239.825 332.073 235.178 334.849 231.793 Z" opacity="1" fill="rgb(33,125,58)" fill-rule="evenodd"/>
<path d=" M 325.7 398.812 C 330.149 398.782 335.207 398.131 339.592 398.828 C 339.609 401.507 339.169 404.386 339.451 407.04 C 340.328 406.672 341.073 405.002 341.721 404.251 C 343.189 402.551 345.066 401.268 347.072 400.294 C 355.281 396.312 366.815 396.866 373.602 403.498 C 374.873 404.74 375.653 406.266 376.556 407.761 C 377.017 407.54 377.368 406.696 377.668 406.292 C 378.425 405.269 379.302 404.322 380.224 403.448 C 382.953 400.861 386.467 399.158 390.111 398.29 C 393.092 397.579 396.184 397.418 399.227 397.741 C 401.536 397.986 403.88 398.517 406.016 399.438 C 421.73 406.215 418.207 425.729 418.189 439.524 C 418.184 443.682 418.178 447.84 418.188 451.998 C 418.189 452.677 417.793 455.735 418.222 456.077 C 417.014 455.624 415.282 455.897 413.999 455.885 C 410.828 455.854 407.605 455.722 404.441 455.952 C 403.906 455.086 404.179 453.691 404.184 452.693 C 404.193 450.468 404.18 448.242 404.179 446.017 C 404.178 439.746 404.279 433.475 404.249 427.204 C 404.231 423.412 404.438 419.506 402.506 416.101 C 397.788 407.788 385.236 409.894 381.173 417.563 C 378.847 421.953 379.36 427.238 379.366 432.043 C 379.376 439.993 379.158 447.985 379.338 455.926 C 374.72 456.257 370.038 455.579 365.409 455.951 C 364.881 453.14 365.314 449.86 365.311 446.996 C 365.303 440.891 365.324 434.787 365.305 428.682 C 365.291 424.379 365.731 419.409 363.159 415.692 C 357.954 408.171 346.034 409.647 341.848 417.469 C 339.729 421.429 339.675 425.809 339.674 430.18 C 339.673 434.787 339.709 439.395 339.718 444.002 C 339.725 447.765 339.103 452.178 339.813 455.867 C 335.288 455.436 330.57 455.814 326.032 455.854 C 325.289 455.315 325.72 453.409 325.728 452.5 C 325.757 449.001 325.741 445.5 325.736 442 C 325.719 427.642 326.249 413.155 325.7 398.812 Z" opacity="1" fill="rgb(109,178,68)" fill-rule="evenodd"/>
<path d=" M 333.454 315.273 C 340.161 314.474 347.772 314.427 354.502 314.963 C 354.464 315.091 354.425 315.218 354.387 315.346 C 353.043 319.954 350.051 324.611 347.684 328.777 C 347.346 329.373 346.109 332.689 345.336 332.657 C 344.674 332.63 343.936 332.665 343.289 332.618 C 342.343 331.507 341.776 330.017 341.026 328.767 C 339.188 325.705 337.399 322.622 335.39 319.667 C 334.661 318.596 333.908 317.543 333.202 316.457 C 333.041 316.208 332.539 315.981 332.692 315.728 C 332.846 315.475 333.2 315.425 333.454 315.273 Z" opacity="1" fill="rgb(108,177,78)" fill-rule="evenodd"/>
<path d=" M 345.493 295.795 C 346.075 295.885 346.478 295.689 346.46 296.521 C 346.445 297.265 345.966 297.936 345.958 298.677 C 345.945 299.835 347.565 301.761 348.153 302.751 C 349.722 305.398 351.256 308.065 352.812 310.72 C 353.522 311.933 354.669 313.492 354.502 314.963 C 347.772 314.427 340.161 314.474 333.454 315.273 C 333.553 313.367 335.046 311.719 335.986 310.135 C 338.002 306.74 339.957 303.281 341.781 299.779 C 342.253 298.872 342.996 296.414 343.809 295.841 C 344.045 295.674 345.181 295.809 345.493 295.795 Z" opacity="1" fill="rgb(181,220,112)" fill-rule="evenodd"/>
<path d=" M 366.676 278.319 C 365.879 278.601 364.787 276.198 364.441 275.65 C 362.637 272.794 360.729 270.007 358.884 267.178 C 353.431 258.819 347.737 250.621 342.111 242.381 C 340.628 240.209 339.038 238.091 337.641 235.863 C 336.784 234.497 336.137 232.817 334.849 231.793 C 335.109 231.359 335.223 230.846 335.427 230.38 C 347.359 229.601 359.539 230.372 371.499 230.331 C 376.333 230.315 381.168 230.293 386.003 230.312 C 388.397 230.321 391.093 229.977 393.446 230.429 C 389.39 236.753 386.181 243.628 382.501 250.169 C 377.234 259.534 371.667 268.808 366.676 278.319 Z" opacity="1" fill="rgb(98,171,70)" fill-rule="evenodd"/>
<path d=" M 338.828 224.665 C 340.938 221.377 342.689 217.796 344.675 214.423 C 353.616 199.234 362.728 184.112 371.398 168.766 C 384.086 169.034 396.809 168.748 409.5 168.751 C 415.207 168.753 421.371 168.128 427.022 168.918 C 416.727 187.628 406.262 206.257 396.187 225.089 C 393.347 225.398 390.355 225.111 387.499 225.104 C 381.998 225.091 376.498 225.1 370.997 225.1 C 363.829 225.1 356.661 225.082 349.493 225.066 C 345.956 225.058 342.319 225.305 338.794 225.025 C 338.806 224.905 338.817 224.785 338.828 224.665 Z" opacity="1" fill="rgb(200,229,147)" fill-rule="evenodd"/>
<path d=" M 343.289 332.618 C 343.936 332.665 344.674 332.63 345.336 332.657 C 346.109 332.689 347.346 329.373 347.684 328.777 C 350.051 324.611 353.043 319.954 354.387 315.346 C 354.597 315.313 354.807 315.28 355.017 315.247 C 355.145 315.311 355.273 315.375 355.401 315.439 C 355.73 317.103 356.862 318.628 357.678 320.095 C 359.135 322.712 360.488 325.386 361.834 328.061 C 362.701 329.786 363.664 331.466 364.505 333.203 C 364.693 333.591 365.161 334.967 365.717 334.354 C 365.059 335.873 361.933 335.124 360.504 335.104 C 355.307 335.031 349.818 335.611 344.66 335.039 C 344.123 334.29 343.695 333.447 343.289 332.618 Z" opacity="1" fill="rgb(80,162,69)" fill-rule="evenodd"/>
<path d=" M 345.493 295.795 C 351.802 295.75 358.217 295.229 364.516 295.684 C 363.446 297.149 363.033 299.633 362.219 301.319 C 360.703 304.462 358.765 307.317 357.135 310.385 C 356.639 311.317 354.882 314.62 356.51 314.822 C 356.17 315.094 355.79 315.248 355.401 315.439 C 355.273 315.375 355.145 315.311 355.017 315.247 C 354.783 314.931 354.944 315.043 354.502 314.963 C 354.669 313.492 353.522 311.933 352.812 310.72 C 351.256 308.065 349.722 305.398 348.153 302.751 C 347.565 301.761 345.945 299.835 345.958 298.677 C 345.966 297.936 346.445 297.265 346.46 296.521 C 346.478 295.689 346.075 295.885 345.493 295.795 Z" opacity="1" fill="rgb(190,225,124)" fill-rule="evenodd"/>
<path d=" M 355.401 315.439 C 355.79 315.248 356.17 315.094 356.51 314.822 C 361.675 314.729 366.836 314.88 372 314.909 C 373.201 314.915 374.413 314.9 375.605 315.074 C 375.909 315.119 376.862 315.374 377.06 315.053 C 377.419 315.496 376.7 316.035 376.472 316.396 C 375.797 317.467 375.201 318.593 374.56 319.684 C 371.675 324.603 368.482 329.368 365.717 334.354 C 365.161 334.967 364.693 333.591 364.505 333.203 C 363.664 331.466 362.701 329.786 361.834 328.061 C 360.488 325.386 359.135 322.712 357.678 320.095 C 356.862 318.628 355.73 317.103 355.401 315.439 Z" opacity="1" fill="rgb(119,182,83)" fill-rule="evenodd"/>
<path d=" M 364.516 295.684 C 366.067 295.673 367.381 299.157 368.12 300.375 C 371.04 305.187 373.638 310.593 377.06 315.053 C 376.862 315.374 375.909 315.119 375.605 315.074 C 374.413 314.9 373.201 314.915 372 314.909 C 366.836 314.88 361.675 314.729 356.51 314.822 C 354.882 314.62 356.639 311.317 357.135 310.385 C 358.765 307.317 360.703 304.462 362.219 301.319 C 363.033 299.633 363.446 297.149 364.516 295.684 Z" opacity="1" fill="rgb(177,218,112)" fill-rule="evenodd"/>
<path d=" M 427.891 437.091 C 428.432 434.504 429.183 432.104 430.639 429.86 C 435.778 421.938 447.418 422.283 455.733 422.283 C 458.269 422.283 460.805 422.247 463.34 422.313 C 464.196 422.335 465.907 422.648 466.649 422.186 C 466.486 420.203 466.382 418.261 465.596 416.398 C 461.852 407.515 448.612 409.223 441.208 411.624 C 439.201 412.275 437.38 413.335 435.398 414.011 C 434.532 411.744 433.721 409.453 432.859 407.182 C 432.417 406.017 431.662 404.782 431.557 403.545 C 435.973 400.692 441.357 399.248 446.504 398.391 C 450.618 397.706 454.85 397.476 459.006 397.939 C 461.905 398.262 464.75 398.95 467.489 399.943 C 476.191 403.095 480.016 411.324 480.47 420.002 C 480.922 428.629 480.591 437.353 480.65 445.997 C 480.672 449.226 480.356 452.645 480.726 455.848 C 476.303 455.774 471.859 455.625 467.44 455.914 C 467.028 455.615 467.22 454.303 467.236 453.809 C 467.285 452.216 467.447 450.433 467.074 448.881 C 457.239 460.517 432.857 460.26 428.254 443.514 C 427.681 441.427 427.616 439.231 427.891 437.091 Z M 441.845 437.069 C 440.303 446.433 451.76 448.558 458.501 445.992 C 461.771 444.748 465.232 442.234 466.153 438.668 C 466.786 436.219 466.525 433.624 466.669 431.127 C 464.541 430.535 461.852 430.92 459.646 430.912 C 453.39 430.888 444.223 429.584 441.845 437.069 Z" opacity="1" fill="rgb(109,177,68)" fill-rule="evenodd"/>
<path d=" M 494.259 398.875 C 497.172 398.837 500.086 398.905 503.001 398.871 C 504.751 398.85 506.738 398.55 508.455 398.871 C 508.11 401.932 507.595 406.694 508.469 409.643 C 509.926 408.942 511.151 405.759 512.303 404.492 C 515.364 401.127 519.484 398.947 523.977 398.268 C 525.147 398.091 526.745 397.619 527.897 397.931 C 527.593 402.459 527.481 407.231 527.651 411.764 C 525.324 411.751 522.809 411.857 520.566 412.529 C 518.95 413.013 517.445 413.862 516.112 414.884 C 507.152 421.755 508.568 432.486 508.599 442.601 C 508.61 445.901 508.617 449.201 508.646 452.501 C 508.653 453.175 508.338 455.64 508.755 456.078 C 507.117 455.667 505.182 455.862 503.499 455.839 C 500.477 455.799 497.436 455.72 494.418 455.93 C 493.831 454.909 494.298 452.706 494.294 451.499 C 494.279 447.832 494.285 444.165 494.28 440.499 C 494.262 426.625 494.232 412.748 494.259 398.875 Z" opacity="1" fill="rgb(110,178,68)" fill-rule="evenodd"/>
<path d=" M 531.289 399.866 C 533.737 398.879 537.106 399.747 539.724 399.709 C 539.718 395.971 539.69 392.239 539.728 388.499 C 539.743 387.006 539.518 385.381 539.771 383.914 C 544.356 383.794 548.986 383.885 553.576 383.911 C 554.053 385.166 553.651 387.143 553.654 388.496 C 553.661 392.217 553.794 395.96 553.647 399.677 C 558.563 399.386 563.49 399.462 568.41 399.531 C 568.114 403.026 568.203 406.884 568.398 410.391 C 563.664 410.865 558.451 409.505 553.806 410.686 C 553.66 418.761 553.767 426.843 553.75 434.92 C 553.743 438.372 553.661 442.551 557.287 444.302 C 560.877 446.035 563.847 443.895 567.119 442.746 C 568.447 445.585 570.198 449.435 570.755 452.51 C 570.129 454.189 566.088 455.364 564.554 455.872 C 557.75 458.125 548.061 456.879 543.405 450.946 C 539.576 446.068 539.589 440.385 539.615 434.497 C 539.639 428.999 539.658 423.5 539.707 418.002 C 539.728 415.694 540.266 412.726 539.744 410.495 C 537.827 410.567 535.911 410.561 533.994 410.604 C 533.188 410.621 532.03 410.924 531.289 410.648 C 531.525 407.086 531.382 403.433 531.289 399.866 Z" opacity="1" fill="rgb(108,177,67)" fill-rule="evenodd"/>

</svg>